<svg xmlns="http://www.w3.org/2000/svg" viewBox="0 0 256 256" role="img" aria-labelledby="title desc">
  <title id="title">Vero, Content Creator</title>
  <desc id="desc">A consistent WijerCo agent avatar for Content Creator.</desc>
  <defs>
    <linearGradient id="bg" x1="28" y1="24" x2="226" y2="232" gradientUnits="userSpaceOnUse">
      <stop offset="0" stop-color="#f495c4"/>
      <stop offset=".55" stop-color="#ec4899"/>
      <stop offset="1" stop-color="#9c3065"/>
    </linearGradient>
    <clipPath id="clip"><circle cx="128" cy="128" r="124"/></clipPath>
    <filter id="soft" x="-20%" y="-20%" width="140%" height="140%">
      <feDropShadow dx="0" dy="8" stdDeviation="10" flood-color="#111827" flood-opacity=".22"/>
    </filter>
  </defs>
  <circle cx="128" cy="128" r="124" fill="url(#bg)"/>
  <g clip-path="url(#clip)">
    <path d="M-12 201c39-33 82-42 130-27s90 8 150-22v126H-12z" fill="#0f172a" opacity=".12"/>
    <circle cx="203" cy="92" r="62" fill="#fff" opacity=".14"/>
    <path d="M43 226c5-43 38-71 84-71h2c46 0 79 28 84 71" fill="#e5edf7" filter="url(#soft)"/>
    <path d="M63 229c7-27 29-46 57-51l8 20 9-20c29 5 50 24 57 51" fill="#9c3065" opacity=".45"/>
    <circle cx="128" cy="122" r="55" fill="#8f604a" filter="url(#soft)"/>
    <path d="M82 101c4-35 27-55 59-55 38 0 62 24 62 61-18-20-42-26-73-23-21 2-36 8-48 17z" fill="#6b7280"/>
    <path d="M89 113c17-13 47-19 83-15 13 2 25 6 36 13-7-39-30-62-65-66-35-3-62 18-71 57 5 2 11 6 17 11z" fill="#6b7280" opacity=".82"/>
    <circle cx="108" cy="126" r="5" fill="#1f2937" opacity=".86"/>
    <circle cx="157" cy="126" r="5" fill="#1f2937" opacity=".86"/>
    
    <path d="M117 148c9 7 22 7 31 0" fill="none" stroke="#7f4438" stroke-width="6" stroke-linecap="round" opacity=".72"/>
    <path d="M81 186c24 16 69 21 105 1" fill="none" stroke="#fff" stroke-width="5" stroke-linecap="round" opacity=".5"/>
    <circle cx="88" cy="195" r="11" fill="#ec4899" opacity=".9"/>
    <g transform="translate(-16 -16) scale(.56)" opacity=".86"><path d="M173 86h34v42h-34z" fill="none" stroke="#fff" stroke-width="8" stroke-linejoin="round"/><path d="M207 91l24-11v54l-24-11" fill="#fff" opacity=".92"/><path d="M178 130l10 27" stroke="#fff" stroke-width="8" stroke-linecap="round"/></g>
  </g>
  <circle cx="128" cy="128" r="124" fill="none" stroke="#ffffff" stroke-width="5" opacity=".45"/>
</svg>
